<mxfile host="Electron" modified="2023-12-20T11:09:26.149Z" agent="Mozilla/5.0 (Windows NT 10.0; Win64; x64) AppleWebKit/537.36 (KHTML, like Gecko) draw.io/22.1.11 Chrome/114.0.5735.289 Electron/25.9.8 Safari/537.36" etag="yST2mM4cS8sWU0JPYm-1" version="22.1.11" type="device">
  <diagram name="Page-1" id="6Kox1dhlo0vynmjo5ZH0">
    <mxGraphModel dx="2421" dy="1445" grid="1" gridSize="10" guides="1" tooltips="1" connect="1" arrows="1" fold="1" page="1" pageScale="1" pageWidth="827" pageHeight="1169" math="0" shadow="0">
      <root>
        <mxCell id="0" />
        <mxCell id="1" parent="0" />
        <mxCell id="0HJylOTHT36ZVgI76ISt-4" value="" style="edgeStyle=orthogonalEdgeStyle;rounded=0;orthogonalLoop=1;jettySize=auto;html=1;" edge="1" parent="1" source="0HJylOTHT36ZVgI76ISt-1" target="0HJylOTHT36ZVgI76ISt-3">
          <mxGeometry relative="1" as="geometry" />
        </mxCell>
        <mxCell id="0HJylOTHT36ZVgI76ISt-1" value="Register" style="ellipse;whiteSpace=wrap;html=1;fillColor=#008a00;fontColor=#ffffff;strokeColor=#005700;" vertex="1" parent="1">
          <mxGeometry x="40" y="40" width="120" height="80" as="geometry" />
        </mxCell>
        <mxCell id="0HJylOTHT36ZVgI76ISt-6" value="" style="edgeStyle=orthogonalEdgeStyle;rounded=0;orthogonalLoop=1;jettySize=auto;html=1;" edge="1" parent="1" source="0HJylOTHT36ZVgI76ISt-3" target="0HJylOTHT36ZVgI76ISt-5">
          <mxGeometry relative="1" as="geometry" />
        </mxCell>
        <mxCell id="0HJylOTHT36ZVgI76ISt-3" value="Enter username,&lt;br&gt;Password,&lt;br&gt;Email" style="shape=parallelogram;perimeter=parallelogramPerimeter;whiteSpace=wrap;html=1;fixedSize=1;" vertex="1" parent="1">
          <mxGeometry x="200" y="50" width="120" height="60" as="geometry" />
        </mxCell>
        <mxCell id="0HJylOTHT36ZVgI76ISt-8" value="" style="edgeStyle=orthogonalEdgeStyle;rounded=0;orthogonalLoop=1;jettySize=auto;html=1;" edge="1" parent="1" source="0HJylOTHT36ZVgI76ISt-5" target="0HJylOTHT36ZVgI76ISt-7">
          <mxGeometry relative="1" as="geometry" />
        </mxCell>
        <mxCell id="0HJylOTHT36ZVgI76ISt-5" value="Email Verification Process" style="whiteSpace=wrap;html=1;" vertex="1" parent="1">
          <mxGeometry x="360" y="50" width="120" height="60" as="geometry" />
        </mxCell>
        <mxCell id="0HJylOTHT36ZVgI76ISt-10" value="" style="edgeStyle=orthogonalEdgeStyle;rounded=0;orthogonalLoop=1;jettySize=auto;html=1;" edge="1" parent="1" source="0HJylOTHT36ZVgI76ISt-7" target="0HJylOTHT36ZVgI76ISt-9">
          <mxGeometry relative="1" as="geometry" />
        </mxCell>
        <mxCell id="0HJylOTHT36ZVgI76ISt-11" value="Yes" style="edgeLabel;html=1;align=center;verticalAlign=middle;resizable=0;points=[];" vertex="1" connectable="0" parent="0HJylOTHT36ZVgI76ISt-10">
          <mxGeometry x="-0.369" relative="1" as="geometry">
            <mxPoint as="offset" />
          </mxGeometry>
        </mxCell>
        <mxCell id="0HJylOTHT36ZVgI76ISt-23" value="" style="edgeStyle=orthogonalEdgeStyle;rounded=0;orthogonalLoop=1;jettySize=auto;html=1;" edge="1" parent="1" source="0HJylOTHT36ZVgI76ISt-7" target="0HJylOTHT36ZVgI76ISt-25">
          <mxGeometry relative="1" as="geometry">
            <mxPoint x="660" y="80" as="targetPoint" />
          </mxGeometry>
        </mxCell>
        <mxCell id="0HJylOTHT36ZVgI76ISt-24" value="No" style="edgeLabel;html=1;align=center;verticalAlign=middle;resizable=0;points=[];" vertex="1" connectable="0" parent="0HJylOTHT36ZVgI76ISt-23">
          <mxGeometry x="-0.1429" y="-1" relative="1" as="geometry">
            <mxPoint as="offset" />
          </mxGeometry>
        </mxCell>
        <mxCell id="0HJylOTHT36ZVgI76ISt-7" value="Has &lt;br&gt;email already &lt;br&gt;used" style="rhombus;whiteSpace=wrap;html=1;" vertex="1" parent="1">
          <mxGeometry x="520" y="40" width="80" height="80" as="geometry" />
        </mxCell>
        <mxCell id="0HJylOTHT36ZVgI76ISt-13" value="" style="edgeStyle=orthogonalEdgeStyle;rounded=0;orthogonalLoop=1;jettySize=auto;html=1;" edge="1" parent="1" source="0HJylOTHT36ZVgI76ISt-9" target="0HJylOTHT36ZVgI76ISt-12">
          <mxGeometry relative="1" as="geometry" />
        </mxCell>
        <mxCell id="0HJylOTHT36ZVgI76ISt-9" value="Sorry but i can see that there already is an account with this email address" style="whiteSpace=wrap;html=1;" vertex="1" parent="1">
          <mxGeometry x="500" y="160" width="120" height="60" as="geometry" />
        </mxCell>
        <mxCell id="0HJylOTHT36ZVgI76ISt-14" style="edgeStyle=orthogonalEdgeStyle;rounded=0;orthogonalLoop=1;jettySize=auto;html=1;" edge="1" parent="1" source="0HJylOTHT36ZVgI76ISt-12" target="0HJylOTHT36ZVgI76ISt-3">
          <mxGeometry relative="1" as="geometry" />
        </mxCell>
        <mxCell id="0HJylOTHT36ZVgI76ISt-15" value="&amp;nbsp;OK&amp;nbsp;" style="edgeLabel;html=1;align=center;verticalAlign=middle;resizable=0;points=[];" vertex="1" connectable="0" parent="0HJylOTHT36ZVgI76ISt-14">
          <mxGeometry x="-0.1905" y="1" relative="1" as="geometry">
            <mxPoint as="offset" />
          </mxGeometry>
        </mxCell>
        <mxCell id="0HJylOTHT36ZVgI76ISt-12" value="Please &lt;br&gt;use a new&amp;nbsp;&lt;br&gt;email" style="rhombus;whiteSpace=wrap;html=1;" vertex="1" parent="1">
          <mxGeometry x="360" y="150" width="80" height="80" as="geometry" />
        </mxCell>
        <mxCell id="0HJylOTHT36ZVgI76ISt-18" value="END" style="ellipse;whiteSpace=wrap;html=1;fillColor=#a20025;strokeColor=#6F0000;fontColor=#ffffff;" vertex="1" parent="1">
          <mxGeometry x="40" y="200" width="120" height="80" as="geometry" />
        </mxCell>
        <mxCell id="0HJylOTHT36ZVgI76ISt-20" value="" style="endArrow=classic;html=1;rounded=0;" edge="1" parent="1" source="0HJylOTHT36ZVgI76ISt-12" target="0HJylOTHT36ZVgI76ISt-18">
          <mxGeometry width="50" height="50" relative="1" as="geometry">
            <mxPoint x="420" y="150" as="sourcePoint" />
            <mxPoint x="470" y="100" as="targetPoint" />
          </mxGeometry>
        </mxCell>
        <mxCell id="0HJylOTHT36ZVgI76ISt-21" value="No" style="edgeLabel;html=1;align=center;verticalAlign=middle;resizable=0;points=[];" vertex="1" connectable="0" parent="0HJylOTHT36ZVgI76ISt-20">
          <mxGeometry x="-0.3123" y="-2" relative="1" as="geometry">
            <mxPoint as="offset" />
          </mxGeometry>
        </mxCell>
        <mxCell id="0HJylOTHT36ZVgI76ISt-27" value="" style="edgeStyle=orthogonalEdgeStyle;rounded=0;orthogonalLoop=1;jettySize=auto;html=1;" edge="1" parent="1" source="0HJylOTHT36ZVgI76ISt-25" target="0HJylOTHT36ZVgI76ISt-26">
          <mxGeometry relative="1" as="geometry" />
        </mxCell>
        <mxCell id="0HJylOTHT36ZVgI76ISt-25" value="Welcome &lt;br&gt;#Username" style="shape=parallelogram;perimeter=parallelogramPerimeter;whiteSpace=wrap;html=1;fixedSize=1;" vertex="1" parent="1">
          <mxGeometry x="650" y="50" width="120" height="60" as="geometry" />
        </mxCell>
        <mxCell id="0HJylOTHT36ZVgI76ISt-58" value="" style="edgeStyle=orthogonalEdgeStyle;rounded=0;orthogonalLoop=1;jettySize=auto;html=1;" edge="1" parent="1" source="0HJylOTHT36ZVgI76ISt-26" target="0HJylOTHT36ZVgI76ISt-29">
          <mxGeometry relative="1" as="geometry" />
        </mxCell>
        <mxCell id="0HJylOTHT36ZVgI76ISt-26" value="Please&amp;nbsp;" style="shape=parallelogram;perimeter=parallelogramPerimeter;whiteSpace=wrap;html=1;fixedSize=1;" vertex="1" parent="1">
          <mxGeometry x="650" y="160" width="120" height="60" as="geometry" />
        </mxCell>
        <mxCell id="0HJylOTHT36ZVgI76ISt-28" value="" style="edgeStyle=orthogonalEdgeStyle;rounded=0;orthogonalLoop=1;jettySize=auto;html=1;" edge="1" parent="1" source="0HJylOTHT36ZVgI76ISt-29" target="0HJylOTHT36ZVgI76ISt-33">
          <mxGeometry relative="1" as="geometry" />
        </mxCell>
        <mxCell id="0HJylOTHT36ZVgI76ISt-29" value="Create a job" style="whiteSpace=wrap;html=1;" vertex="1" parent="1">
          <mxGeometry x="650" y="270" width="120" height="60" as="geometry" />
        </mxCell>
        <mxCell id="0HJylOTHT36ZVgI76ISt-30" value="" style="edgeStyle=orthogonalEdgeStyle;rounded=0;orthogonalLoop=1;jettySize=auto;html=1;" edge="1" parent="1" source="0HJylOTHT36ZVgI76ISt-31" target="0HJylOTHT36ZVgI76ISt-35">
          <mxGeometry relative="1" as="geometry" />
        </mxCell>
        <mxCell id="0HJylOTHT36ZVgI76ISt-31" value="Please write something about your&lt;br&gt;new job&lt;br&gt;(Description)" style="whiteSpace=wrap;html=1;fillColor=none;" vertex="1" parent="1">
          <mxGeometry x="294" y="270" width="120" height="60" as="geometry" />
        </mxCell>
        <mxCell id="0HJylOTHT36ZVgI76ISt-32" value="" style="edgeStyle=orthogonalEdgeStyle;rounded=0;orthogonalLoop=1;jettySize=auto;html=1;" edge="1" parent="1" source="0HJylOTHT36ZVgI76ISt-33" target="0HJylOTHT36ZVgI76ISt-31">
          <mxGeometry relative="1" as="geometry" />
        </mxCell>
        <mxCell id="0HJylOTHT36ZVgI76ISt-33" value="Job Name" style="whiteSpace=wrap;html=1;fillColor=none;" vertex="1" parent="1">
          <mxGeometry x="490" y="270" width="120" height="60" as="geometry" />
        </mxCell>
        <mxCell id="0HJylOTHT36ZVgI76ISt-34" value="" style="edgeStyle=orthogonalEdgeStyle;rounded=0;orthogonalLoop=1;jettySize=auto;html=1;" edge="1" parent="1" source="0HJylOTHT36ZVgI76ISt-35" target="0HJylOTHT36ZVgI76ISt-48">
          <mxGeometry relative="1" as="geometry" />
        </mxCell>
        <mxCell id="0HJylOTHT36ZVgI76ISt-35" value="Income" style="whiteSpace=wrap;html=1;fillColor=none;" vertex="1" parent="1">
          <mxGeometry x="40" y="370" width="120" height="60" as="geometry" />
        </mxCell>
        <mxCell id="0HJylOTHT36ZVgI76ISt-38" value="" style="edgeStyle=orthogonalEdgeStyle;rounded=0;orthogonalLoop=1;jettySize=auto;html=1;exitX=1;exitY=0.5;exitDx=0;exitDy=0;" edge="1" parent="1" source="0HJylOTHT36ZVgI76ISt-57" target="0HJylOTHT36ZVgI76ISt-43">
          <mxGeometry relative="1" as="geometry">
            <mxPoint x="634" y="865" as="sourcePoint" />
          </mxGeometry>
        </mxCell>
        <mxCell id="0HJylOTHT36ZVgI76ISt-39" value="No" style="edgeLabel;html=1;align=center;verticalAlign=middle;resizable=0;points=[];" vertex="1" connectable="0" parent="0HJylOTHT36ZVgI76ISt-38">
          <mxGeometry x="-0.18" y="1" relative="1" as="geometry">
            <mxPoint as="offset" />
          </mxGeometry>
        </mxCell>
        <mxCell id="0HJylOTHT36ZVgI76ISt-128" value="" style="edgeStyle=orthogonalEdgeStyle;rounded=0;orthogonalLoop=1;jettySize=auto;html=1;" edge="1" parent="1" source="0HJylOTHT36ZVgI76ISt-41" target="0HJylOTHT36ZVgI76ISt-127">
          <mxGeometry relative="1" as="geometry" />
        </mxCell>
        <mxCell id="0HJylOTHT36ZVgI76ISt-41" value="Start from Zero" style="whiteSpace=wrap;html=1;rounded=0;fillColor=none;" vertex="1" parent="1">
          <mxGeometry x="590" y="760" width="120" height="60" as="geometry" />
        </mxCell>
        <mxCell id="0HJylOTHT36ZVgI76ISt-129" style="edgeStyle=orthogonalEdgeStyle;rounded=0;orthogonalLoop=1;jettySize=auto;html=1;" edge="1" parent="1" source="0HJylOTHT36ZVgI76ISt-43" target="0HJylOTHT36ZVgI76ISt-127">
          <mxGeometry relative="1" as="geometry" />
        </mxCell>
        <mxCell id="0HJylOTHT36ZVgI76ISt-43" value="Insert the amount you&lt;br&gt;Already have" style="whiteSpace=wrap;html=1;rounded=0;fillColor=none;" vertex="1" parent="1">
          <mxGeometry x="670" y="640" width="120" height="60" as="geometry" />
        </mxCell>
        <mxCell id="0HJylOTHT36ZVgI76ISt-45" style="edgeStyle=orthogonalEdgeStyle;rounded=0;orthogonalLoop=1;jettySize=auto;html=1;entryX=0.5;entryY=0;entryDx=0;entryDy=0;" edge="1" parent="1" source="0HJylOTHT36ZVgI76ISt-48" target="0HJylOTHT36ZVgI76ISt-50">
          <mxGeometry relative="1" as="geometry" />
        </mxCell>
        <mxCell id="0HJylOTHT36ZVgI76ISt-46" value="" style="edgeStyle=orthogonalEdgeStyle;rounded=0;orthogonalLoop=1;jettySize=auto;html=1;" edge="1" parent="1" source="0HJylOTHT36ZVgI76ISt-48" target="0HJylOTHT36ZVgI76ISt-52">
          <mxGeometry relative="1" as="geometry">
            <Array as="points">
              <mxPoint x="510" y="400" />
            </Array>
          </mxGeometry>
        </mxCell>
        <mxCell id="0HJylOTHT36ZVgI76ISt-47" style="edgeStyle=orthogonalEdgeStyle;rounded=0;orthogonalLoop=1;jettySize=auto;html=1;entryX=0.5;entryY=0;entryDx=0;entryDy=0;" edge="1" parent="1" source="0HJylOTHT36ZVgI76ISt-48" target="0HJylOTHT36ZVgI76ISt-54">
          <mxGeometry relative="1" as="geometry" />
        </mxCell>
        <mxCell id="0HJylOTHT36ZVgI76ISt-48" value="When&lt;br&gt;do you get&lt;br&gt;Paid" style="rhombus;whiteSpace=wrap;html=1;fillColor=none;" vertex="1" parent="1">
          <mxGeometry x="220" y="360" width="80" height="80" as="geometry" />
        </mxCell>
        <mxCell id="0HJylOTHT36ZVgI76ISt-50" value="Daily" style="whiteSpace=wrap;html=1;fillColor=none;" vertex="1" parent="1">
          <mxGeometry x="310" y="430" width="120" height="60" as="geometry" />
        </mxCell>
        <mxCell id="0HJylOTHT36ZVgI76ISt-117" style="edgeStyle=orthogonalEdgeStyle;rounded=0;orthogonalLoop=1;jettySize=auto;html=1;" edge="1" parent="1" source="0HJylOTHT36ZVgI76ISt-52" target="0HJylOTHT36ZVgI76ISt-56">
          <mxGeometry relative="1" as="geometry" />
        </mxCell>
        <mxCell id="0HJylOTHT36ZVgI76ISt-52" value="Weekly" style="whiteSpace=wrap;html=1;fillColor=none;" vertex="1" parent="1">
          <mxGeometry x="450" y="430" width="120" height="60" as="geometry" />
        </mxCell>
        <mxCell id="0HJylOTHT36ZVgI76ISt-118" style="edgeStyle=orthogonalEdgeStyle;rounded=0;orthogonalLoop=1;jettySize=auto;html=1;" edge="1" parent="1" source="0HJylOTHT36ZVgI76ISt-54" target="0HJylOTHT36ZVgI76ISt-56">
          <mxGeometry relative="1" as="geometry" />
        </mxCell>
        <mxCell id="0HJylOTHT36ZVgI76ISt-54" value="Monthly" style="whiteSpace=wrap;html=1;fillColor=none;" vertex="1" parent="1">
          <mxGeometry x="590" y="430" width="120" height="60" as="geometry" />
        </mxCell>
        <mxCell id="0HJylOTHT36ZVgI76ISt-59" value="" style="edgeStyle=orthogonalEdgeStyle;rounded=0;orthogonalLoop=1;jettySize=auto;html=1;" edge="1" parent="1" source="0HJylOTHT36ZVgI76ISt-56" target="0HJylOTHT36ZVgI76ISt-57">
          <mxGeometry relative="1" as="geometry" />
        </mxCell>
        <mxCell id="0HJylOTHT36ZVgI76ISt-56" value="Pay Day" style="whiteSpace=wrap;html=1;fillColor=none;" vertex="1" parent="1">
          <mxGeometry x="524" y="540" width="120" height="60" as="geometry" />
        </mxCell>
        <mxCell id="0HJylOTHT36ZVgI76ISt-57" value="Are you&lt;br style=&quot;font-size: 8px;&quot;&gt;&lt;span style=&quot;font-size: 8px;&quot;&gt;going to start&lt;/span&gt;&lt;br style=&quot;font-size: 8px;&quot;&gt;&lt;span style=&quot;font-size: 8px;&quot;&gt;from zero&lt;/span&gt;" style="rhombus;whiteSpace=wrap;html=1;fillColor=none;" vertex="1" parent="1">
          <mxGeometry x="544" y="630" width="80" height="80" as="geometry" />
        </mxCell>
        <mxCell id="0HJylOTHT36ZVgI76ISt-120" value="" style="endArrow=classic;html=1;rounded=0;" edge="1" parent="1" source="0HJylOTHT36ZVgI76ISt-50" target="0HJylOTHT36ZVgI76ISt-57">
          <mxGeometry width="50" height="50" relative="1" as="geometry">
            <mxPoint x="130" y="550" as="sourcePoint" />
            <mxPoint x="180" y="500" as="targetPoint" />
          </mxGeometry>
        </mxCell>
        <mxCell id="0HJylOTHT36ZVgI76ISt-121" value="" style="endArrow=classic;html=1;rounded=0;" edge="1" parent="1" source="0HJylOTHT36ZVgI76ISt-57" target="0HJylOTHT36ZVgI76ISt-41">
          <mxGeometry width="50" height="50" relative="1" as="geometry">
            <mxPoint x="381" y="690" as="sourcePoint" />
            <mxPoint x="544" y="850" as="targetPoint" />
          </mxGeometry>
        </mxCell>
        <mxCell id="0HJylOTHT36ZVgI76ISt-122" value="Yes" style="edgeLabel;html=1;align=center;verticalAlign=middle;resizable=0;points=[];" vertex="1" connectable="0" parent="0HJylOTHT36ZVgI76ISt-121">
          <mxGeometry x="-0.3003" relative="1" as="geometry">
            <mxPoint as="offset" />
          </mxGeometry>
        </mxCell>
        <mxCell id="0HJylOTHT36ZVgI76ISt-133" value="" style="edgeStyle=orthogonalEdgeStyle;rounded=0;orthogonalLoop=1;jettySize=auto;html=1;" edge="1" parent="1" source="0HJylOTHT36ZVgI76ISt-127" target="0HJylOTHT36ZVgI76ISt-132">
          <mxGeometry relative="1" as="geometry" />
        </mxCell>
        <mxCell id="0HJylOTHT36ZVgI76ISt-134" value="Skip" style="edgeLabel;html=1;align=center;verticalAlign=middle;resizable=0;points=[];" vertex="1" connectable="0" parent="0HJylOTHT36ZVgI76ISt-133">
          <mxGeometry x="-0.1917" y="2" relative="1" as="geometry">
            <mxPoint as="offset" />
          </mxGeometry>
        </mxCell>
        <mxCell id="0HJylOTHT36ZVgI76ISt-135" style="edgeStyle=orthogonalEdgeStyle;rounded=0;orthogonalLoop=1;jettySize=auto;html=1;" edge="1" parent="1" source="0HJylOTHT36ZVgI76ISt-127" target="0HJylOTHT36ZVgI76ISt-140">
          <mxGeometry relative="1" as="geometry">
            <mxPoint x="390" y="560" as="targetPoint" />
            <Array as="points">
              <mxPoint x="450" y="890" />
              <mxPoint x="450" y="560" />
            </Array>
          </mxGeometry>
        </mxCell>
        <mxCell id="0HJylOTHT36ZVgI76ISt-136" value="&amp;nbsp;Saving&amp;nbsp;" style="edgeLabel;html=1;align=center;verticalAlign=middle;resizable=0;points=[];" vertex="1" connectable="0" parent="0HJylOTHT36ZVgI76ISt-135">
          <mxGeometry x="-0.5265" y="3" relative="1" as="geometry">
            <mxPoint as="offset" />
          </mxGeometry>
        </mxCell>
        <mxCell id="0HJylOTHT36ZVgI76ISt-138" value="" style="edgeStyle=orthogonalEdgeStyle;rounded=0;orthogonalLoop=1;jettySize=auto;html=1;" edge="1" parent="1" source="0HJylOTHT36ZVgI76ISt-127" target="0HJylOTHT36ZVgI76ISt-137">
          <mxGeometry relative="1" as="geometry" />
        </mxCell>
        <mxCell id="0HJylOTHT36ZVgI76ISt-139" value="Loan" style="edgeLabel;html=1;align=center;verticalAlign=middle;resizable=0;points=[];" vertex="1" connectable="0" parent="0HJylOTHT36ZVgI76ISt-138">
          <mxGeometry x="-0.1111" y="-2" relative="1" as="geometry">
            <mxPoint x="87" y="-742" as="offset" />
          </mxGeometry>
        </mxCell>
        <mxCell id="0HJylOTHT36ZVgI76ISt-127" value="Skip&lt;br&gt;or Saving or&lt;br&gt;Loan" style="rhombus;whiteSpace=wrap;html=1;fillColor=none;rounded=0;" vertex="1" parent="1">
          <mxGeometry x="690" y="850" width="80" height="80" as="geometry" />
        </mxCell>
        <mxCell id="0HJylOTHT36ZVgI76ISt-132" value="You are ready to go" style="whiteSpace=wrap;html=1;rounded=0;fillColor=#008a00;fontColor=#ffffff;strokeColor=#005700;" vertex="1" parent="1">
          <mxGeometry x="670" y="970" width="120" height="60" as="geometry" />
        </mxCell>
        <mxCell id="0HJylOTHT36ZVgI76ISt-186" value="" style="edgeStyle=orthogonalEdgeStyle;rounded=0;orthogonalLoop=1;jettySize=auto;html=1;" edge="1" parent="1" source="0HJylOTHT36ZVgI76ISt-137" target="0HJylOTHT36ZVgI76ISt-182">
          <mxGeometry relative="1" as="geometry" />
        </mxCell>
        <mxCell id="0HJylOTHT36ZVgI76ISt-137" value="Loan Name" style="whiteSpace=wrap;html=1;fillColor=none;rounded=0;" vertex="1" parent="1">
          <mxGeometry x="1520" y="50" width="120" height="60" as="geometry" />
        </mxCell>
        <mxCell id="0HJylOTHT36ZVgI76ISt-140" value="Saving Name" style="whiteSpace=wrap;html=1;fillColor=none;" vertex="1" parent="1">
          <mxGeometry x="300" y="530" width="120" height="60" as="geometry" />
        </mxCell>
        <mxCell id="0HJylOTHT36ZVgI76ISt-144" value="" style="edgeStyle=orthogonalEdgeStyle;rounded=0;orthogonalLoop=1;jettySize=auto;html=1;" edge="1" parent="1" source="0HJylOTHT36ZVgI76ISt-141" target="0HJylOTHT36ZVgI76ISt-143">
          <mxGeometry relative="1" as="geometry" />
        </mxCell>
        <mxCell id="0HJylOTHT36ZVgI76ISt-141" value="Saving Amount" style="whiteSpace=wrap;html=1;fillColor=none;" vertex="1" parent="1">
          <mxGeometry x="160" y="530" width="120" height="60" as="geometry" />
        </mxCell>
        <mxCell id="0HJylOTHT36ZVgI76ISt-146" value="" style="edgeStyle=orthogonalEdgeStyle;rounded=0;orthogonalLoop=1;jettySize=auto;html=1;" edge="1" parent="1" source="0HJylOTHT36ZVgI76ISt-143" target="0HJylOTHT36ZVgI76ISt-145">
          <mxGeometry relative="1" as="geometry" />
        </mxCell>
        <mxCell id="0HJylOTHT36ZVgI76ISt-147" value="Yes" style="edgeLabel;html=1;align=center;verticalAlign=middle;resizable=0;points=[];" vertex="1" connectable="0" parent="0HJylOTHT36ZVgI76ISt-146">
          <mxGeometry x="-0.3867" y="-1" relative="1" as="geometry">
            <mxPoint x="22" y="-6" as="offset" />
          </mxGeometry>
        </mxCell>
        <mxCell id="0HJylOTHT36ZVgI76ISt-151" style="edgeStyle=orthogonalEdgeStyle;rounded=0;orthogonalLoop=1;jettySize=auto;html=1;exitX=0;exitY=1;exitDx=0;exitDy=0;" edge="1" parent="1" source="0HJylOTHT36ZVgI76ISt-143" target="0HJylOTHT36ZVgI76ISt-152">
          <mxGeometry relative="1" as="geometry">
            <mxPoint x="80" y="740" as="targetPoint" />
          </mxGeometry>
        </mxCell>
        <mxCell id="0HJylOTHT36ZVgI76ISt-153" value="No" style="edgeLabel;html=1;align=center;verticalAlign=middle;resizable=0;points=[];" vertex="1" connectable="0" parent="0HJylOTHT36ZVgI76ISt-151">
          <mxGeometry x="0.2392" y="1" relative="1" as="geometry">
            <mxPoint as="offset" />
          </mxGeometry>
        </mxCell>
        <mxCell id="0HJylOTHT36ZVgI76ISt-143" value="Is &lt;br&gt;Amount More then They have" style="rhombus;whiteSpace=wrap;html=1;fillColor=none;" vertex="1" parent="1">
          <mxGeometry x="60" y="520" width="80" height="80" as="geometry" />
        </mxCell>
        <mxCell id="0HJylOTHT36ZVgI76ISt-150" value="" style="edgeStyle=orthogonalEdgeStyle;rounded=0;orthogonalLoop=1;jettySize=auto;html=1;" edge="1" parent="1" source="0HJylOTHT36ZVgI76ISt-145" target="0HJylOTHT36ZVgI76ISt-149">
          <mxGeometry relative="1" as="geometry" />
        </mxCell>
        <mxCell id="0HJylOTHT36ZVgI76ISt-145" value="Sorry Can&#39;t Create&lt;br&gt;Because &lt;br&gt;#Last_Option" style="whiteSpace=wrap;html=1;fillColor=none;" vertex="1" parent="1">
          <mxGeometry x="130" y="670" width="120" height="60" as="geometry" />
        </mxCell>
        <mxCell id="0HJylOTHT36ZVgI76ISt-149" value="Back to Dashboard" style="ellipse;whiteSpace=wrap;html=1;fillColor=#a20025;fontColor=#ffffff;strokeColor=#6F0000;" vertex="1" parent="1">
          <mxGeometry x="300" y="660" width="120" height="80" as="geometry" />
        </mxCell>
        <mxCell id="0HJylOTHT36ZVgI76ISt-161" value="" style="edgeStyle=orthogonalEdgeStyle;rounded=0;orthogonalLoop=1;jettySize=auto;html=1;" edge="1" parent="1" source="0HJylOTHT36ZVgI76ISt-152" target="0HJylOTHT36ZVgI76ISt-160">
          <mxGeometry relative="1" as="geometry" />
        </mxCell>
        <mxCell id="0HJylOTHT36ZVgI76ISt-152" value="How long this saving&lt;br&gt;account is gonna last" style="whiteSpace=wrap;html=1;fillColor=none;" vertex="1" parent="1">
          <mxGeometry x="20" y="750" width="120" height="60" as="geometry" />
        </mxCell>
        <mxCell id="0HJylOTHT36ZVgI76ISt-154" value="" style="edgeStyle=orthogonalEdgeStyle;rounded=0;orthogonalLoop=1;jettySize=auto;html=1;" edge="1" parent="1">
          <mxGeometry relative="1" as="geometry">
            <mxPoint x="120" y="880" as="sourcePoint" />
            <mxPoint x="180" y="880" as="targetPoint" />
          </mxGeometry>
        </mxCell>
        <mxCell id="0HJylOTHT36ZVgI76ISt-155" value="Date" style="edgeLabel;html=1;align=center;verticalAlign=middle;resizable=0;points=[];" vertex="1" connectable="0" parent="0HJylOTHT36ZVgI76ISt-154">
          <mxGeometry x="-0.2333" y="-1" relative="1" as="geometry">
            <mxPoint as="offset" />
          </mxGeometry>
        </mxCell>
        <mxCell id="0HJylOTHT36ZVgI76ISt-156" value="" style="edgeStyle=orthogonalEdgeStyle;rounded=0;orthogonalLoop=1;jettySize=auto;html=1;" edge="1" parent="1">
          <mxGeometry relative="1" as="geometry">
            <mxPoint x="80" y="920" as="sourcePoint" />
            <mxPoint x="80" y="990" as="targetPoint" />
          </mxGeometry>
        </mxCell>
        <mxCell id="0HJylOTHT36ZVgI76ISt-157" value="Amount" style="edgeLabel;html=1;align=center;verticalAlign=middle;resizable=0;points=[];" vertex="1" connectable="0" parent="0HJylOTHT36ZVgI76ISt-156">
          <mxGeometry x="-0.3314" y="1" relative="1" as="geometry">
            <mxPoint as="offset" />
          </mxGeometry>
        </mxCell>
        <mxCell id="0HJylOTHT36ZVgI76ISt-165" value="" style="edgeStyle=orthogonalEdgeStyle;rounded=0;orthogonalLoop=1;jettySize=auto;html=1;" edge="1" parent="1" source="0HJylOTHT36ZVgI76ISt-158" target="0HJylOTHT36ZVgI76ISt-164">
          <mxGeometry relative="1" as="geometry" />
        </mxCell>
        <mxCell id="0HJylOTHT36ZVgI76ISt-158" value="Amount Please" style="whiteSpace=wrap;html=1;fillColor=none;" vertex="1" parent="1">
          <mxGeometry x="20" y="990" width="120" height="60" as="geometry" />
        </mxCell>
        <mxCell id="0HJylOTHT36ZVgI76ISt-163" value="" style="edgeStyle=orthogonalEdgeStyle;rounded=0;orthogonalLoop=1;jettySize=auto;html=1;" edge="1" parent="1" source="0HJylOTHT36ZVgI76ISt-159" target="0HJylOTHT36ZVgI76ISt-162">
          <mxGeometry relative="1" as="geometry" />
        </mxCell>
        <mxCell id="0HJylOTHT36ZVgI76ISt-159" value="Insert the date please" style="whiteSpace=wrap;html=1;fillColor=none;" vertex="1" parent="1">
          <mxGeometry x="180" y="850" width="120" height="60" as="geometry" />
        </mxCell>
        <mxCell id="0HJylOTHT36ZVgI76ISt-160" value="Amount&lt;br&gt;or&lt;br&gt;Date" style="rhombus;whiteSpace=wrap;html=1;fillColor=none;" vertex="1" parent="1">
          <mxGeometry x="40" y="840" width="80" height="80" as="geometry" />
        </mxCell>
        <mxCell id="0HJylOTHT36ZVgI76ISt-162" value="&amp;nbsp; &amp;nbsp; &amp;nbsp; Accourding to this you will have this saving account&lt;br&gt;of #CalcAmount&amp;nbsp; &amp;nbsp; &amp;nbsp;" style="shape=parallelogram;perimeter=parallelogramPerimeter;whiteSpace=wrap;html=1;fixedSize=1;fillColor=none;" vertex="1" parent="1">
          <mxGeometry x="320" y="850" width="120" height="60" as="geometry" />
        </mxCell>
        <mxCell id="0HJylOTHT36ZVgI76ISt-164" value="&amp;nbsp; &amp;nbsp; &amp;nbsp; Accourding to this you will have this saving account &lt;br&gt;up until #CalcDate&amp;nbsp; &amp;nbsp; &amp;nbsp;" style="shape=parallelogram;perimeter=parallelogramPerimeter;whiteSpace=wrap;html=1;fixedSize=1;fillColor=none;" vertex="1" parent="1">
          <mxGeometry x="20" y="1090" width="120" height="60" as="geometry" />
        </mxCell>
        <mxCell id="0HJylOTHT36ZVgI76ISt-175" style="edgeStyle=orthogonalEdgeStyle;rounded=0;orthogonalLoop=1;jettySize=auto;html=1;" edge="1" parent="1" source="0HJylOTHT36ZVgI76ISt-170" target="0HJylOTHT36ZVgI76ISt-172">
          <mxGeometry relative="1" as="geometry" />
        </mxCell>
        <mxCell id="0HJylOTHT36ZVgI76ISt-176" style="edgeStyle=orthogonalEdgeStyle;rounded=0;orthogonalLoop=1;jettySize=auto;html=1;entryX=0;entryY=0.5;entryDx=0;entryDy=0;" edge="1" parent="1" source="0HJylOTHT36ZVgI76ISt-170" target="0HJylOTHT36ZVgI76ISt-171">
          <mxGeometry relative="1" as="geometry" />
        </mxCell>
        <mxCell id="0HJylOTHT36ZVgI76ISt-170" value="Are you&lt;br style=&quot;font-size: 8px;&quot;&gt;&lt;span style=&quot;font-size: 8px;&quot;&gt;going to start&lt;/span&gt;&lt;br style=&quot;font-size: 8px;&quot;&gt;&lt;span style=&quot;font-size: 8px;&quot;&gt;from zero&lt;/span&gt;" style="rhombus;whiteSpace=wrap;html=1;fillColor=none;" vertex="1" parent="1">
          <mxGeometry x="190" y="960" width="80" height="80" as="geometry" />
        </mxCell>
        <mxCell id="0HJylOTHT36ZVgI76ISt-229" style="edgeStyle=orthogonalEdgeStyle;rounded=0;orthogonalLoop=1;jettySize=auto;html=1;" edge="1" parent="1" source="0HJylOTHT36ZVgI76ISt-171" target="0HJylOTHT36ZVgI76ISt-227">
          <mxGeometry relative="1" as="geometry" />
        </mxCell>
        <mxCell id="0HJylOTHT36ZVgI76ISt-171" value="Insert the amount you&lt;br&gt;Already have" style="whiteSpace=wrap;html=1;rounded=0;fillColor=none;" vertex="1" parent="1">
          <mxGeometry x="340" y="1050" width="120" height="60" as="geometry" />
        </mxCell>
        <mxCell id="0HJylOTHT36ZVgI76ISt-228" style="edgeStyle=orthogonalEdgeStyle;rounded=0;orthogonalLoop=1;jettySize=auto;html=1;" edge="1" parent="1" source="0HJylOTHT36ZVgI76ISt-172" target="0HJylOTHT36ZVgI76ISt-227">
          <mxGeometry relative="1" as="geometry" />
        </mxCell>
        <mxCell id="0HJylOTHT36ZVgI76ISt-172" value="Start from Zero" style="whiteSpace=wrap;html=1;rounded=0;fillColor=none;" vertex="1" parent="1">
          <mxGeometry x="340" y="970" width="120" height="60" as="geometry" />
        </mxCell>
        <mxCell id="0HJylOTHT36ZVgI76ISt-173" value="" style="endArrow=classic;html=1;rounded=0;" edge="1" parent="1" source="0HJylOTHT36ZVgI76ISt-162" target="0HJylOTHT36ZVgI76ISt-170">
          <mxGeometry width="50" height="50" relative="1" as="geometry">
            <mxPoint x="490" y="920" as="sourcePoint" />
            <mxPoint x="540" y="870" as="targetPoint" />
          </mxGeometry>
        </mxCell>
        <mxCell id="0HJylOTHT36ZVgI76ISt-174" value="" style="endArrow=classic;html=1;rounded=0;" edge="1" parent="1" source="0HJylOTHT36ZVgI76ISt-164" target="0HJylOTHT36ZVgI76ISt-170">
          <mxGeometry width="50" height="50" relative="1" as="geometry">
            <mxPoint x="362" y="920" as="sourcePoint" />
            <mxPoint x="289" y="999" as="targetPoint" />
          </mxGeometry>
        </mxCell>
        <mxCell id="0HJylOTHT36ZVgI76ISt-190" value="" style="edgeStyle=orthogonalEdgeStyle;rounded=0;orthogonalLoop=1;jettySize=auto;html=1;" edge="1" parent="1" source="0HJylOTHT36ZVgI76ISt-180" target="0HJylOTHT36ZVgI76ISt-188">
          <mxGeometry relative="1" as="geometry" />
        </mxCell>
        <mxCell id="0HJylOTHT36ZVgI76ISt-180" value="Loan Amount" style="whiteSpace=wrap;html=1;fillColor=none;" vertex="1" parent="1">
          <mxGeometry x="1190" y="50" width="120" height="60" as="geometry" />
        </mxCell>
        <mxCell id="0HJylOTHT36ZVgI76ISt-187" value="" style="edgeStyle=orthogonalEdgeStyle;rounded=0;orthogonalLoop=1;jettySize=auto;html=1;" edge="1" parent="1" source="0HJylOTHT36ZVgI76ISt-182" target="0HJylOTHT36ZVgI76ISt-180">
          <mxGeometry relative="1" as="geometry" />
        </mxCell>
        <mxCell id="0HJylOTHT36ZVgI76ISt-182" value="Loan Description" style="whiteSpace=wrap;html=1;fillColor=none;" vertex="1" parent="1">
          <mxGeometry x="1341" y="50" width="120" height="60" as="geometry" />
        </mxCell>
        <mxCell id="0HJylOTHT36ZVgI76ISt-184" value="" style="edgeStyle=orthogonalEdgeStyle;rounded=0;orthogonalLoop=1;jettySize=auto;html=1;" edge="1" parent="1" source="0HJylOTHT36ZVgI76ISt-183" target="0HJylOTHT36ZVgI76ISt-141">
          <mxGeometry relative="1" as="geometry" />
        </mxCell>
        <mxCell id="0HJylOTHT36ZVgI76ISt-183" value="Saving Description" style="whiteSpace=wrap;html=1;fillColor=none;" vertex="1" parent="1">
          <mxGeometry x="160" y="450" width="120" height="60" as="geometry" />
        </mxCell>
        <mxCell id="0HJylOTHT36ZVgI76ISt-185" value="" style="endArrow=classic;html=1;rounded=0;" edge="1" parent="1" source="0HJylOTHT36ZVgI76ISt-140" target="0HJylOTHT36ZVgI76ISt-183">
          <mxGeometry width="50" height="50" relative="1" as="geometry">
            <mxPoint x="260" y="480" as="sourcePoint" />
            <mxPoint x="310" y="430" as="targetPoint" />
          </mxGeometry>
        </mxCell>
        <mxCell id="0HJylOTHT36ZVgI76ISt-197" value="" style="edgeStyle=orthogonalEdgeStyle;rounded=0;orthogonalLoop=1;jettySize=auto;html=1;" edge="1" parent="1" source="0HJylOTHT36ZVgI76ISt-188" target="0HJylOTHT36ZVgI76ISt-195">
          <mxGeometry relative="1" as="geometry" />
        </mxCell>
        <mxCell id="0HJylOTHT36ZVgI76ISt-198" value="&amp;nbsp;Yes&amp;nbsp;" style="edgeLabel;html=1;align=center;verticalAlign=middle;resizable=0;points=[];" vertex="1" connectable="0" parent="0HJylOTHT36ZVgI76ISt-197">
          <mxGeometry x="-0.0531" y="2" relative="1" as="geometry">
            <mxPoint y="-2" as="offset" />
          </mxGeometry>
        </mxCell>
        <mxCell id="0HJylOTHT36ZVgI76ISt-210" value="" style="edgeStyle=orthogonalEdgeStyle;rounded=0;orthogonalLoop=1;jettySize=auto;html=1;" edge="1" parent="1" source="0HJylOTHT36ZVgI76ISt-188" target="0HJylOTHT36ZVgI76ISt-209">
          <mxGeometry relative="1" as="geometry" />
        </mxCell>
        <mxCell id="0HJylOTHT36ZVgI76ISt-211" value="No" style="edgeLabel;html=1;align=center;verticalAlign=middle;resizable=0;points=[];" vertex="1" connectable="0" parent="0HJylOTHT36ZVgI76ISt-210">
          <mxGeometry x="-0.6229" relative="1" as="geometry">
            <mxPoint as="offset" />
          </mxGeometry>
        </mxCell>
        <mxCell id="0HJylOTHT36ZVgI76ISt-188" value="&lt;font style=&quot;font-size: 10px;&quot;&gt;Is Loan &lt;br&gt;more then amount left &lt;br&gt;in bank&lt;/font&gt;" style="rhombus;whiteSpace=wrap;html=1;fillColor=none;" vertex="1" parent="1">
          <mxGeometry x="1060" y="40" width="80" height="80" as="geometry" />
        </mxCell>
        <mxCell id="0HJylOTHT36ZVgI76ISt-193" value="Back to Dashboard" style="ellipse;whiteSpace=wrap;html=1;fillColor=#a20025;fontColor=#ffffff;strokeColor=#6F0000;" vertex="1" parent="1">
          <mxGeometry x="875" y="150" width="120" height="80" as="geometry" />
        </mxCell>
        <mxCell id="0HJylOTHT36ZVgI76ISt-196" value="" style="edgeStyle=orthogonalEdgeStyle;rounded=0;orthogonalLoop=1;jettySize=auto;html=1;" edge="1" parent="1" source="0HJylOTHT36ZVgI76ISt-195" target="0HJylOTHT36ZVgI76ISt-193">
          <mxGeometry relative="1" as="geometry" />
        </mxCell>
        <mxCell id="0HJylOTHT36ZVgI76ISt-195" value="&lt;span style=&quot;color: rgb(240, 240, 240); font-family: Helvetica; font-size: 12px; font-style: normal; font-variant-ligatures: normal; font-variant-caps: normal; font-weight: 400; letter-spacing: normal; orphans: 2; text-align: center; text-indent: 0px; text-transform: none; widows: 2; word-spacing: 0px; -webkit-text-stroke-width: 0px; background-color: rgb(27, 29, 30); text-decoration-thickness: initial; text-decoration-style: initial; text-decoration-color: initial; float: none; display: inline !important;&quot;&gt;Sorry how can you pay &lt;br&gt;Loan when your income &lt;br&gt;is less then the loan itself&lt;/span&gt;" style="shape=parallelogram;perimeter=parallelogramPerimeter;whiteSpace=wrap;html=1;fixedSize=1;fillColor=none;" vertex="1" parent="1">
          <mxGeometry x="850" y="50" width="170" height="60" as="geometry" />
        </mxCell>
        <mxCell id="0HJylOTHT36ZVgI76ISt-199" value="" style="edgeStyle=orthogonalEdgeStyle;rounded=0;orthogonalLoop=1;jettySize=auto;html=1;" edge="1" parent="1">
          <mxGeometry relative="1" as="geometry">
            <mxPoint x="1140" y="190" as="sourcePoint" />
            <mxPoint x="1200" y="190" as="targetPoint" />
          </mxGeometry>
        </mxCell>
        <mxCell id="0HJylOTHT36ZVgI76ISt-200" value="" style="edgeStyle=orthogonalEdgeStyle;rounded=0;orthogonalLoop=1;jettySize=auto;html=1;" edge="1" parent="1">
          <mxGeometry relative="1" as="geometry">
            <Array as="points">
              <mxPoint x="1100" y="290" />
            </Array>
            <mxPoint x="1100" y="230" as="sourcePoint" />
            <mxPoint x="1200" y="290" as="targetPoint" />
          </mxGeometry>
        </mxCell>
        <mxCell id="0HJylOTHT36ZVgI76ISt-201" value="" style="edgeStyle=orthogonalEdgeStyle;rounded=0;orthogonalLoop=1;jettySize=auto;html=1;" edge="1" parent="1">
          <mxGeometry relative="1" as="geometry">
            <Array as="points">
              <mxPoint x="1100" y="400" />
            </Array>
            <mxPoint x="1100" y="230" as="sourcePoint" />
            <mxPoint x="1200" y="400" as="targetPoint" />
          </mxGeometry>
        </mxCell>
        <mxCell id="0HJylOTHT36ZVgI76ISt-202" style="edgeStyle=orthogonalEdgeStyle;rounded=0;orthogonalLoop=1;jettySize=auto;html=1;fillColor=#6a00ff;strokeColor=#3700CC;" edge="1" parent="1">
          <mxGeometry relative="1" as="geometry">
            <mxPoint x="1320" y="190" as="sourcePoint" />
            <mxPoint x="1468" y="260" as="targetPoint" />
          </mxGeometry>
        </mxCell>
        <mxCell id="0HJylOTHT36ZVgI76ISt-203" value="" style="edgeStyle=orthogonalEdgeStyle;rounded=0;orthogonalLoop=1;jettySize=auto;html=1;fillColor=#6a00ff;strokeColor=#3700CC;" edge="1" parent="1">
          <mxGeometry relative="1" as="geometry">
            <mxPoint x="1320" y="290" as="sourcePoint" />
            <mxPoint x="1418" y="290" as="targetPoint" />
          </mxGeometry>
        </mxCell>
        <mxCell id="0HJylOTHT36ZVgI76ISt-204" style="edgeStyle=orthogonalEdgeStyle;rounded=0;orthogonalLoop=1;jettySize=auto;html=1;" edge="1" parent="1">
          <mxGeometry relative="1" as="geometry">
            <mxPoint x="1320" y="400" as="sourcePoint" />
            <mxPoint x="1468" y="320" as="targetPoint" />
          </mxGeometry>
        </mxCell>
        <mxCell id="0HJylOTHT36ZVgI76ISt-213" style="edgeStyle=orthogonalEdgeStyle;rounded=0;orthogonalLoop=1;jettySize=auto;html=1;exitX=0.75;exitY=1;exitDx=0;exitDy=0;" edge="1" parent="1" source="0HJylOTHT36ZVgI76ISt-205" target="0HJylOTHT36ZVgI76ISt-212">
          <mxGeometry relative="1" as="geometry" />
        </mxCell>
        <mxCell id="0HJylOTHT36ZVgI76ISt-205" value="&lt;span style=&quot;color: rgb(240, 240, 240); font-family: Helvetica; font-size: 12px; font-style: normal; font-variant-ligatures: normal; font-variant-caps: normal; font-weight: 400; letter-spacing: normal; orphans: 2; text-align: center; text-indent: 0px; text-transform: none; widows: 2; word-spacing: 0px; -webkit-text-stroke-width: 0px; background-color: rgb(27, 29, 30); text-decoration-thickness: initial; text-decoration-style: initial; text-decoration-color: initial; float: none; display: inline !important;&quot;&gt;How much are &lt;br&gt;you going to pay #Last_Option&lt;/span&gt;" style="shape=parallelogram;perimeter=parallelogramPerimeter;whiteSpace=wrap;html=1;fixedSize=1;fillColor=none;" vertex="1" parent="1">
          <mxGeometry x="1408" y="260" width="120" height="60" as="geometry" />
        </mxCell>
        <mxCell id="0HJylOTHT36ZVgI76ISt-206" value="Monthly" style="whiteSpace=wrap;html=1;fillColor=none;" vertex="1" parent="1">
          <mxGeometry x="1200" y="370" width="120" height="60" as="geometry" />
        </mxCell>
        <mxCell id="0HJylOTHT36ZVgI76ISt-207" value="Weekly" style="whiteSpace=wrap;html=1;fillColor=none;" vertex="1" parent="1">
          <mxGeometry x="1200" y="260" width="120" height="60" as="geometry" />
        </mxCell>
        <mxCell id="0HJylOTHT36ZVgI76ISt-208" value="Daily" style="whiteSpace=wrap;html=1;fillColor=none;" vertex="1" parent="1">
          <mxGeometry x="1200" y="160" width="120" height="60" as="geometry" />
        </mxCell>
        <mxCell id="0HJylOTHT36ZVgI76ISt-209" value="When &lt;br&gt;do you have to pay" style="rhombus;whiteSpace=wrap;html=1;fillColor=none;" vertex="1" parent="1">
          <mxGeometry x="1060" y="150" width="80" height="80" as="geometry" />
        </mxCell>
        <mxCell id="0HJylOTHT36ZVgI76ISt-225" value="" style="edgeStyle=orthogonalEdgeStyle;rounded=0;orthogonalLoop=1;jettySize=auto;html=1;" edge="1" parent="1" source="0HJylOTHT36ZVgI76ISt-212" target="0HJylOTHT36ZVgI76ISt-224">
          <mxGeometry relative="1" as="geometry" />
        </mxCell>
        <mxCell id="0HJylOTHT36ZVgI76ISt-226" value="No" style="edgeLabel;html=1;align=center;verticalAlign=middle;resizable=0;points=[];" vertex="1" connectable="0" parent="0HJylOTHT36ZVgI76ISt-225">
          <mxGeometry x="-0.1143" y="-2" relative="1" as="geometry">
            <mxPoint as="offset" />
          </mxGeometry>
        </mxCell>
        <mxCell id="0HJylOTHT36ZVgI76ISt-212" value="&lt;span style=&quot;color: rgb(240, 240, 240); font-family: Helvetica; font-size: 12px; font-style: normal; font-variant-ligatures: normal; font-variant-caps: normal; font-weight: 400; letter-spacing: normal; orphans: 2; text-align: center; text-indent: 0px; text-transform: none; widows: 2; word-spacing: 0px; -webkit-text-stroke-width: 0px; background-color: rgb(27, 29, 30); text-decoration-thickness: initial; text-decoration-style: initial; text-decoration-color: initial; float: none; display: inline !important;&quot;&gt;Is &lt;br&gt;Amount getting more then he &lt;br&gt;earns&lt;/span&gt;" style="rhombus;whiteSpace=wrap;html=1;fillColor=none;" vertex="1" parent="1">
          <mxGeometry x="1458" y="450" width="80" height="80" as="geometry" />
        </mxCell>
        <mxCell id="0HJylOTHT36ZVgI76ISt-218" value="" style="edgeStyle=orthogonalEdgeStyle;rounded=0;orthogonalLoop=1;jettySize=auto;html=1;" edge="1" parent="1" source="0HJylOTHT36ZVgI76ISt-214" target="0HJylOTHT36ZVgI76ISt-215">
          <mxGeometry relative="1" as="geometry" />
        </mxCell>
        <mxCell id="0HJylOTHT36ZVgI76ISt-214" value="Sorry Your #Second_Last_Option&lt;br&gt;is not working with you current income" style="whiteSpace=wrap;html=1;fillColor=none;" vertex="1" parent="1">
          <mxGeometry x="1320" y="550" width="120" height="60" as="geometry" />
        </mxCell>
        <mxCell id="0HJylOTHT36ZVgI76ISt-222" style="edgeStyle=orthogonalEdgeStyle;rounded=0;orthogonalLoop=1;jettySize=auto;html=1;entryX=0;entryY=0.5;entryDx=0;entryDy=0;" edge="1" parent="1" source="0HJylOTHT36ZVgI76ISt-215" target="0HJylOTHT36ZVgI76ISt-209">
          <mxGeometry relative="1" as="geometry" />
        </mxCell>
        <mxCell id="0HJylOTHT36ZVgI76ISt-223" value="&amp;nbsp;Pay Option&amp;nbsp;" style="edgeLabel;html=1;align=center;verticalAlign=middle;resizable=0;points=[];" vertex="1" connectable="0" parent="0HJylOTHT36ZVgI76ISt-222">
          <mxGeometry x="-0.2631" y="1" relative="1" as="geometry">
            <mxPoint as="offset" />
          </mxGeometry>
        </mxCell>
        <mxCell id="0HJylOTHT36ZVgI76ISt-215" value="Want &lt;br&gt;to change amount or pay option" style="rhombus;whiteSpace=wrap;html=1;fillColor=none;" vertex="1" parent="1">
          <mxGeometry x="1340" y="410" width="80" height="80" as="geometry" />
        </mxCell>
        <mxCell id="0HJylOTHT36ZVgI76ISt-217" value="" style="endArrow=classic;html=1;rounded=0;" edge="1" parent="1" source="0HJylOTHT36ZVgI76ISt-212" target="0HJylOTHT36ZVgI76ISt-214">
          <mxGeometry width="50" height="50" relative="1" as="geometry">
            <mxPoint x="1010" y="410" as="sourcePoint" />
            <mxPoint x="1060" y="360" as="targetPoint" />
          </mxGeometry>
        </mxCell>
        <mxCell id="0HJylOTHT36ZVgI76ISt-219" value="Yes" style="edgeLabel;html=1;align=center;verticalAlign=middle;resizable=0;points=[];" vertex="1" connectable="0" parent="0HJylOTHT36ZVgI76ISt-217">
          <mxGeometry x="-0.1066" y="-2" relative="1" as="geometry">
            <mxPoint as="offset" />
          </mxGeometry>
        </mxCell>
        <mxCell id="0HJylOTHT36ZVgI76ISt-220" style="edgeStyle=orthogonalEdgeStyle;rounded=0;orthogonalLoop=1;jettySize=auto;html=1;entryX=0.643;entryY=1.005;entryDx=0;entryDy=0;entryPerimeter=0;" edge="1" parent="1" source="0HJylOTHT36ZVgI76ISt-215" target="0HJylOTHT36ZVgI76ISt-205">
          <mxGeometry relative="1" as="geometry">
            <Array as="points">
              <mxPoint x="1485" y="430" />
            </Array>
          </mxGeometry>
        </mxCell>
        <mxCell id="0HJylOTHT36ZVgI76ISt-221" value="&amp;nbsp;Amount&amp;nbsp;" style="edgeLabel;html=1;align=center;verticalAlign=middle;resizable=0;points=[];" vertex="1" connectable="0" parent="0HJylOTHT36ZVgI76ISt-220">
          <mxGeometry x="-0.525" relative="1" as="geometry">
            <mxPoint as="offset" />
          </mxGeometry>
        </mxCell>
        <mxCell id="0HJylOTHT36ZVgI76ISt-237" style="edgeStyle=orthogonalEdgeStyle;rounded=0;orthogonalLoop=1;jettySize=auto;html=1;entryX=1;entryY=0.5;entryDx=0;entryDy=0;" edge="1" parent="1" source="0HJylOTHT36ZVgI76ISt-224" target="0HJylOTHT36ZVgI76ISt-236">
          <mxGeometry relative="1" as="geometry" />
        </mxCell>
        <mxCell id="0HJylOTHT36ZVgI76ISt-224" value="Accourding to this you will be able to finish this loan at this #CalcDate" style="shape=parallelogram;perimeter=parallelogramPerimeter;whiteSpace=wrap;html=1;fixedSize=1;fillColor=none;" vertex="1" parent="1">
          <mxGeometry x="1438" y="610" width="120" height="60" as="geometry" />
        </mxCell>
        <mxCell id="0HJylOTHT36ZVgI76ISt-230" style="edgeStyle=orthogonalEdgeStyle;rounded=0;orthogonalLoop=1;jettySize=auto;html=1;" edge="1" parent="1" source="0HJylOTHT36ZVgI76ISt-227" target="0HJylOTHT36ZVgI76ISt-132">
          <mxGeometry relative="1" as="geometry" />
        </mxCell>
        <mxCell id="0HJylOTHT36ZVgI76ISt-233" value="Done" style="edgeLabel;html=1;align=center;verticalAlign=middle;resizable=0;points=[];" vertex="1" connectable="0" parent="0HJylOTHT36ZVgI76ISt-230">
          <mxGeometry x="-0.0047" y="1" relative="1" as="geometry">
            <mxPoint as="offset" />
          </mxGeometry>
        </mxCell>
        <mxCell id="0HJylOTHT36ZVgI76ISt-227" value="Done or something &lt;br&gt;left" style="rhombus;whiteSpace=wrap;html=1;" vertex="1" parent="1">
          <mxGeometry x="520" y="1000" width="80" height="80" as="geometry" />
        </mxCell>
        <mxCell id="0HJylOTHT36ZVgI76ISt-232" value="" style="endArrow=classic;html=1;rounded=0;" edge="1" parent="1" source="0HJylOTHT36ZVgI76ISt-227" target="0HJylOTHT36ZVgI76ISt-127">
          <mxGeometry width="50" height="50" relative="1" as="geometry">
            <mxPoint x="390" y="930" as="sourcePoint" />
            <mxPoint x="440" y="880" as="targetPoint" />
          </mxGeometry>
        </mxCell>
        <mxCell id="0HJylOTHT36ZVgI76ISt-234" value="Something else" style="edgeLabel;html=1;align=center;verticalAlign=middle;resizable=0;points=[];" vertex="1" connectable="0" parent="0HJylOTHT36ZVgI76ISt-232">
          <mxGeometry x="-0.0412" y="1" relative="1" as="geometry">
            <mxPoint x="-32" y="-16" as="offset" />
          </mxGeometry>
        </mxCell>
        <mxCell id="0HJylOTHT36ZVgI76ISt-235" value="You are ready to go" style="whiteSpace=wrap;html=1;rounded=0;fillColor=#008a00;fontColor=#ffffff;strokeColor=#005700;" vertex="1" parent="1">
          <mxGeometry x="1170" y="690" width="120" height="60" as="geometry" />
        </mxCell>
        <mxCell id="0HJylOTHT36ZVgI76ISt-238" value="" style="edgeStyle=orthogonalEdgeStyle;rounded=0;orthogonalLoop=1;jettySize=auto;html=1;" edge="1" parent="1" source="0HJylOTHT36ZVgI76ISt-236" target="0HJylOTHT36ZVgI76ISt-235">
          <mxGeometry relative="1" as="geometry" />
        </mxCell>
        <mxCell id="0HJylOTHT36ZVgI76ISt-239" value="&amp;nbsp;Done&amp;nbsp;" style="edgeLabel;html=1;align=center;verticalAlign=middle;resizable=0;points=[];" vertex="1" connectable="0" parent="0HJylOTHT36ZVgI76ISt-238">
          <mxGeometry x="0.0672" relative="1" as="geometry">
            <mxPoint as="offset" />
          </mxGeometry>
        </mxCell>
        <mxCell id="0HJylOTHT36ZVgI76ISt-240" style="edgeStyle=orthogonalEdgeStyle;rounded=0;orthogonalLoop=1;jettySize=auto;html=1;entryX=1;entryY=0;entryDx=0;entryDy=0;" edge="1" parent="1" source="0HJylOTHT36ZVgI76ISt-236" target="0HJylOTHT36ZVgI76ISt-127">
          <mxGeometry relative="1" as="geometry">
            <Array as="points">
              <mxPoint x="1398" y="870" />
            </Array>
          </mxGeometry>
        </mxCell>
        <mxCell id="0HJylOTHT36ZVgI76ISt-241" value="Something else" style="edgeLabel;html=1;align=center;verticalAlign=middle;resizable=0;points=[];" vertex="1" connectable="0" parent="0HJylOTHT36ZVgI76ISt-240">
          <mxGeometry x="-0.0637" relative="1" as="geometry">
            <mxPoint x="-53" y="-10" as="offset" />
          </mxGeometry>
        </mxCell>
        <mxCell id="0HJylOTHT36ZVgI76ISt-236" value="Done or something &lt;br&gt;left" style="rhombus;whiteSpace=wrap;html=1;" vertex="1" parent="1">
          <mxGeometry x="1358" y="680" width="80" height="80" as="geometry" />
        </mxCell>
      </root>
    </mxGraphModel>
  </diagram>
</mxfile>
